/* XPM */
static char *result[] = {
/* columns rows colors chars-per-pixel */
"64 64 4 1 ",
"  c #D94A02",
". c #D5652D",
"X c #E37E4B",
"o c #22B14C",
/* pixels */
"oooooooooooooooooooooooooooooooooooooooooooooooooooooooooooooooo",
"oooooooooooooooooooooooooooooooooooooooooooooooooooooooooooooooo",
"oooooooooooooooooooooooooooooooooooooooooooooooooooooooooooooooo",
"oooooooooooooooooooooooooooooooooooooooooooooooooooooooooooooooo",
"oooooooooooooooooooooooooooooooooooooooooooooooooooooooooooooooo",
"oooooooooooooooooooooooooooooooooooooooooooooooooooooooooooooooo",
"oooooooooooooooooooooooooooooooooooooooooooooooooooooooooooooooo",
"oooooooooooooooooooooooooooooooooooooooooooooooooooooooooooooooo",
"oooooooooooooooooooooooooooooooooooooooooooooooooooooooooooooooo",
"oooooooooooooooooooooooooooooooooooooooooooooooooooooooooooooooo",
"oooooooooooooooooooooooooooooooooooooooooooooooooooooooooooooooo",
"oooooooooooooooooooooooooooooooooooooooooooooooooooooooooooooooo",
"oooooooooooooooooooooooooooooooooooooooooooooooooooooooooooooooo",
"oooooooooooooooooooooooooooooooooooooooooooooooooooooooooooooooo",
"oooooooooooooooooooooooooooooooooooooooooooooooooooooooooooooooo",
"oooooooooooooooooooooooooooooooooooooooooooooooooooooooooooooooo",
"oooooooooooooooooooooooooooooooooooooooooooooooooooooooooooooooo",
"oooooooooooooooooooooooooooooooooooooooooooooooooooooooooooooooo",
"ooooooooooooooooooooooooooo      X      X       oooooooooooooooo",
"oooooooooooooooooooooooooo .....X......X......  oooooooooooooooo",
"oooooooooooooooooooooooooo .....X......X......  oooooooooooooooo",
"ooooooooooooooooooooooooo .....X......X...... . oooooooooooooooo",
"ooooooooooooooooooooooooo .....X......X...... . oooooooooooooooo",
"oooooooooooooooooooooooo .....X......X...... .. oooooooooooooooo",
"oooooooooooooooooooooooo .....X......X...... .. oooooooooooooooo",
"ooooooooooooooooooooooo .....X......X...... ..X oooooooooooooooo",
"ooooooooooooooooooooooo .....X......X...... ..X oooooooooooooooo",
"oooooooooooooooooooooo .....X......X...... ..X. oooooooooooooooo",
"ooooooooooooooooooo   .....X......X...... ...X.             oooo",
"oooooooooooooooooo .. .....X......X...... ..X. .....X.....  oooo",
"oooooooooooooooooo . .....X......X...... ..X.. .....X.....  oooo",
"ooooooooooooooooo .. .....X......X...... ..X. .....X..... . oooo",
"ooooooooooooooooo . .....X......X...... ..X.. .....X..... . oooo",
"oooooooooooooooo .. .....X......X...... ..X. .....X..... .. oooo",
"oooooooooooooooo . .....X......X...... ..X.. .....X..... .. oooo",
"ooooooooooooooo .. .....X......X...... ..X. .....X..... ..X oooo",
"ooooooooooooooo .                     ..X.. .....X..... ..X oooo",
"oooooooooooooo .. .....X......X...... .X.. .....X..... ..X. oooo",
"ooooooooooooo ... .....X......X...... .X. .....X..... ...X. oooo",
"ooooooooooooo ... .....X......X...... X.. .....X..... ..X. ooooo",
"oooooooooooo .... .....X......X...... X. .....X..... ..X.. ooooo",
"oooooooooooo .... XXXXXXXXXXXXXXXXXXX .. .....X..... ..X. oooooo",
"ooooooooooo ..... .....X......X...... . .....X..... ..X.. oooooo",
"ooooooooooo ....X .....X......X...... . .....X..... ..X. ooooooo",
"oooooooooo .....X .....X......X......  .....X..... ..X.. ooooooo",
"oooooooooo ....X. .....X......X......  .....X..... ..X. oooooooo",
"ooooooooo                                         ..X.. oooooooo",
"ooooooooo .....X......X...... .....X.......X..... .X.. ooooooooo",
"ooooooooo .....X......X...... .....X.......X..... .X. oooooooooo",
"ooooooooo .....X......X...... .....X.......X..... X.. oooooooooo",
"ooooooooo .....X......X...... .....X.......X..... X. ooooooooooo",
"ooooooooo XXXXXXXXXXXXXXXXXXX XXXXXXXXXXXXXXXXXXX .. ooooooooooo",
"ooooooooo .....X......X...... .....X.......X..... . oooooooooooo",
"ooooooooo .....X......X...... .....X.......X..... . oooooooooooo",
"ooooooooo .....X......X...... .....X.......X.....  ooooooooooooo",
"ooooooooo .....X......X...... .....X.......X.....  ooooooooooooo",
"ooooooooo                                         oooooooooooooo",
"oooooooooooooooooooooooooooooooooooooooooooooooooooooooooooooooo",
"oooooooooooooooooooooooooooooooooooooooooooooooooooooooooooooooo",
"oooooooooooooooooooooooooooooooooooooooooooooooooooooooooooooooo",
"oooooooooooooooooooooooooooooooooooooooooooooooooooooooooooooooo",
"oooooooooooooooooooooooooooooooooooooooooooooooooooooooooooooooo",
"oooooooooooooooooooooooooooooooooooooooooooooooooooooooooooooooo",
"oooooooooooooooooooooooooooooooooooooooooooooooooooooooooooooooo"
};
