/* XPM */
static char *result[] = {
/* columns rows colors chars-per-pixel */
"64 64 6 1 ",
"  c #030845",
". c #040B6E",
"X c #22B14C",
"o c #2F3699",
"O c #4D6DF3",
"+ c #709AD1",
/* pixels */
"XXXXXXXXXXXXXXXXXXXXXXXXXXXXXXXXXXXXXXXXXXXXXXXXXXXXXXXXXXXXXXXX",
"XXXXXXXXXXXXXXXXXXXXXXXXXXXXXXXXXXXXXXXXXXXXXXXXXXXXXXXXXXXXXXXX",
"XXXXXXXXXXXXXXXXXXXXXXXXXXXXXXXXXXXXXXXXXXXXXXXXXXXXXXXXXXXXXXXX",
"XXXXXXXXXXXXXXXXXXXXXXXXXXXXXX+++++++++XXXXXXXXXXXXXXXXXXXXXXXXX",
"XXXXXXXXXXXXXXXXXXXXXXXXXXXX+++++++++++++XXXXXXXXXXXXXXXXXXXXXXX",
"XXXXXXXXXXXXXXXXXXXXXXXXXX+++++++++++++++++XXXXXXXXXXXXXXXXXXXXX",
"XXXXXXXXXXXXXXXXXXXXXXXX+++++++++++++++++++++XXXXXXXXXXXXXXXXXXX",
"XXXXXXXXXXXXXXXXXXXXXXX+++++++++++++++++++++++XXXXXXXXXXXXXXXXXX",
"XXXXXXXXXXXXXXXXXXXXXX+++++++++++++++++++++++++XXXXXXXXXXXXXXXXX",
"XXXXXXXXXXXXXXXXXXXXX+++++++++++++++++++++++++++XXXXXXXXXXXXXXXX",
"XXXXXXXXXXXXXXXXXXXX+++++++++++OOOOOOO+++++++++++XXXXXXXXXXXXXXX",
"XXXXXXXXXXXXXXXXXXX+++++++++OOOOOOOOOOOOO+++++++++XXXXXXXXXXXXXX",
"XXXXXXXXXXXXXXXXXX++++++++OOOOOOOOOOOOOOOOO++++++++XXXXXXXXXXXXX",
"XXXXXXXXXXXXXXXXXX+++++++OOOOOOOOOOOOOOOOOOO+++++++XXXXXXXXXXXXX",
"XXXXXXXXXXXXXXXXX+++++++OOOOOOOOOOOOOOOOOOOOO+++++++XXXXXXXXXXXX",
"XXXXXXXXXXXXXXXXX++++++OOOOOOOOOoooooOOOOOOOOO++++++XXXXXXXXXXXX",
"XXXXXXXXXXXXXXXX++++++OOOOOOOOoooooooooOOOOOOOO++++++XXXXXXXXXXX",
"XXXXXXXXXXXXXXXX+++++OOOOOOOOoooooooooooOOOOOOOO+++++XXXXXXXXXXX",
"XXXXXXXXXXXXXXX++++++OOOOOOOoooooooooooooOOOOOOO++++++XXXXXXXXXX",
"XXXXXXXXXXXXXXX+++++OOOOOOOoooooooooooooooOOOOOOO+++++XXXXXXXXXX",
"XXXXXXXXXXXXXX++++++OOOOOOoooooooooooooooooOOOOOO++++++XXXXXXXXX",
"XXXXXXXXXXXXXX+++++OOOOOOOoooooooooooooooooOOOOOOO+++++XXXXXXXXX",
"XXXXXXXXXXXXXX+++++OOOOOOoooooooo.....ooooooOOOOOO+++++XXXXXXXXX",
"XXXXXXXXXXXXXX++++OOOOOOOoooooo.........ooooOOOOOOO++++XXXXXXXXX",
"XXXXXXXXXXXXXX++++OOOOOOoooooo...........ooooOOOOOO++++XXXXXXXXX",
"XXXXXXXXXXXXX+++++OOOOOOooooo.............oooOOOOOO+++++XXXXXXXX",
"XXXXXXXXXXXXX++++OOOOOOOoooo...............ooOOOOOOO++++XXXXXXXX",
"XXXXXXXXXXXXX++++OOOOOOoooo......   ........ooOOOOOO++++XXXXXXXX",
"XXXXXXXXXXXXX++++OOOOOOoooo.....     .......ooOOOOOO++++XXXXXXXX",
"XXXXXXXXXXXXX++++OOOOOOoooo.....     .......ooOOOOOO++++XXXXXXXX",
"XXXXXXXXXXXXX++++OOOOOOooo......     ........oOOOOOO++++XXXXXXXX",
"XXXXXXXXXXXXX++++OOOOOOooo.....       .......oOOOOOO++++XXXXXXXX",
"XXXXXXXXXXXXX++++OOOOOOooo.....       .......oOOOOOO++++XXXXXXXX",
"XXXXXXXXXXXXX++++OOOOOOooo.....       .......oOOOOOO++++XXXXXXXX",
"XXXXXXXXXXXXX++++OOOOOOooo.....       .......oOOOOOO++++XXXXXXXX",
"XXXXXXXXXXXXX++++OOOOOOooo.....       .......oOOOOOO++++XXXXXXXX",
"XXXXXXXXXXXXXX+++OOOOOOooo.....       .......oOOOOOO+++XXXXXXXXX",
"XXXXXXXXXXXXXX++++OOOOOoooo....       ......ooOOOOO++++XXXXXXXXX",
"XXXXXXXXXXXXXX++++OOOOOOooo.....     .......oOOOOOO++++XXXXXXXXX",
"XXXXXXXXXXXXXX++++OOOOOOooo.....     .......oOOOOOO++++XXXXXXXXX",
"XXXXXXXXXXXXXX+++++OOOOOoooo....     ......ooOOOOO+++++XXXXXXXXX",
"XXXXXXXXXXXXXXX++++OOOOOOoooo....   ......ooOOOOOO++++XXXXXXXXXX",
"XXXXXXXXXXXXXXX+++++OOOOOooooo...........oooOOOOO+++++XXXXXXXXXX",
"XXXXXXXXXXXXXXXX++++OOOOOOooooo.........oooOOOOOO++++XXXXXXXXXXX",
"XXXXXXXXXXXXXXXX+++++OOOOOooooooo.....oooooOOOOO+++++XXXXXXXXXXX",
"XXXXXXXXXXXXXXXXX++++OOOOOOoooooooooooooooOOOOOO++++XXXXXXXXXXXX",
"XXXXXXXXXXXXXXXXX+++++OOOOOOoooooooooooooOOOOOO+++++XXXXXXXXXXXX",
"XXXXXXXXXXXXXXXXXX+++++OOOOOOoooooooooooOOOOOO+++++XXXXXXXXXXXXX",
"XXXXXXXXXXXXXXXXXX++++++OOOOOOoooooooooOOOOOO++++++XXXXXXXXXXXXX",
"XXXXXXXXXXXXXXXXXXX++++++OOOOOOOoooooOOOOOOO++++++XXXXXXXXXXXXXX",
"XXXXXXXXXXXXXXXXXXXX++++++OOOOOOOOOOOOOOOOO++++++XXXXXXXXXXXXXXX",
"XXXXXXXXXXXXXXXXXXXXX+++++++OOOOOOOOOOOOO+++++++XXXXXXXXXXXXXXXX",
"XXXXXXXXXXXXXXXXXXXXXX+++++++++OOOOOOO+++++++++XXXXXXXXXXXXXXXXX",
"XXXXXXXXXXXXXXXXXXXXXXX+++++++++++++++++++++++XXXXXXXXXXXXXXXXXX",
"XXXXXXXXXXXXXXXXXXXXXXXX+++++++++++++++++++++XXXXXXXXXXXXXXXXXXX",
"XXXXXXXXXXXXXXXXXXXXXXXXXX+++++++++++++++++XXXXXXXXXXXXXXXXXXXXX",
"XXXXXXXXXXXXXXXXXXXXXXXXXXXX+++++++++++++XXXXXXXXXXXXXXXXXXXXXXX",
"XXXXXXXXXXXXXXXXXXXXXXXXXXXXXX+++++++++XXXXXXXXXXXXXXXXXXXXXXXXX",
"XXXXXXXXXXXXXXXXXXXXXXXXXXXXXXXXXXXXXXXXXXXXXXXXXXXXXXXXXXXXXXXX",
"XXXXXXXXXXXXXXXXXXXXXXXXXXXXXXXXXXXXXXXXXXXXXXXXXXXXXXXXXXXXXXXX",
"XXXXXXXXXXXXXXXXXXXXXXXXXXXXXXXXXXXXXXXXXXXXXXXXXXXXXXXXXXXXXXXX",
"XXXXXXXXXXXXXXXXXXXXXXXXXXXXXXXXXXXXXXXXXXXXXXXXXXXXXXXXXXXXXXXX",
"XXXXXXXXXXXXXXXXXXXXXXXXXXXXXXXXXXXXXXXXXXXXXXXXXXXXXXXXXXXXXXXX",
"XXXXXXXXXXXXXXXXXXXXXXXXXXXXXXXXXXXXXXXXXXXXXXXXXXXXXXXXXXXXXXXX"
};
