

/* XPM */
static char *result[] = {
/* columns rows colors chars-per-pixel */
"64 64 16 1 ",
"  c #3D3111",
". c #464646",
"X c #ED1C24",
"o c #FF7E00",
"O c #22B14C",
"+ c #FFC20E",
"@ c #FFF200",
"# c #E5AA7A",
"$ c #FFF563",
"% c #2F3699",
"& c #4D6DF3",
"* c #A3A19E",
"= c #F5E49C",
"- c #CFC7C0",
"; c #FCEBDC",
": c white",
/* pixels */
"OOOOOOOOOOOOOOOOOOOOOOOOOOOOOOOOOOOOOOOOOOOOOOOOOOOOOOOOOOOOOOOO",
"OOOOOOOOOOOOOOOOOOOOOOOOOOOOOOOOOOOOOOOOOOOOOOOOOOOOOOOOOOOOOOOO",
"OOOOOOOOOOOOOOOOOOOOOOOOOOOOOOOOOOOOOOOOOOOOOOOOOOOOOOOOOOOOOOOO",
"OOOOOOOOOOOOOOOOOOOOOOOOOOOOOO++++OOOOOOOOOOOOOOOOOOOOOOOOOOOOOO",
"OOOOOOOOOOOOOOOOOOOOOOOOOOO+oo++++oo+OOOOOOOOOOOOOOOOOOOOOOOOOOO",
"OOOOOOOOOOOOOOOOOOOOOOOOO++++o++++o++++OOOOOOOOOOOOOOOOOOOOOOOOO",
"OOOOOOOOOOOOOOOOOOOOOOOOOo+++oo++oo+++oOOOOOOOOOOOOOOOOOOOOOOOOO",
"OOOOOOOOOOOOOOOOOOOOOOOO++o+++o++o+++o++OOOOOOOOOOOOOOOOOOOOOOOO",
"OOOOOOOOOOOOOOOOOOOOOOOO++o+++o++o+++o++OOOOOOOOOOOOOOOOOOOOOOOO",
"OOOOOOOOOOOOOOOOOOOOOOOO++o++======++o++OOOOOOOOOOOOOOOOOOOOOOOO",
"OOOOOOOOOOOOOOOOOOOOOOOO++============++OOOOOOOOOOOOOOOOOOOOOOOO",
"OOOOOOOOOOOOOOOOOOOOOOOOOOX===========OOOOOOOOOOOOOOOOOOOOOOOOOO",
"OOOOOOOOOOOOOOOOOOOOOOOOOO=X=:X==X:===OOOOOOOOOOOOOOOOOOOOOOOOOO",
"OOOOOOOOOOOOOOOOOOOOOOOOOO=X=:X==X:===OOOOOOOOOOOOOOOOOOOOOOOOOO",
"OOOOOOOOOOOOOOOOOOOOOOOOOO==X=========OOOOOOOOOOOOOOOOOOOOOOOOOO",
"OOOOOOOOOOOOOOOOOOOOOOOOOOO====##====OOOOOOOOOOOOOOOOOOOOOOOOOOO",
"OOOOOOOOOOOOOOOOOOOOOOOOOOOO==#==#==OOOOOOOOOOOOOOOOOOOOOOOOOOOO",
"OOOOOOOOOOOOOOOOOOOOOOOOOOOOO======OOOOOOOOOOOOOOOOOOOOOOOOOOOOO",
"OOOOOOOOOOOOOOOOOOOOOOOOOOOOOOO==OOOOOOOOOOOOOOOOOOOOOOOOOOOOOOO",
"OOOOOOOOOOOOOOOOOOOOOOOOOOOOOOO==OOOOOOOOOOOOOOOOOOOOOOOOOOOOOOO",
"OOOOOOOOOOOOOOOOOOOOOOOOOOO$$$:==:$$$OOOOOOOOOOOOOOOOOOOOOOOOOOO",
"OOOOOOOOOOOOO....OOOOOOOOO:$$$:-::$$$:OOOOOOOOOOOOOOOOOOOOOOOOOO",
"OOOOOOOOOOO.......OOOOOO:::$$$:-.:$$$:::OOOOOOOOOOOOOOOOOOOOOOOO",
"OOOOOOOOOO.......OOOOO:::::$$$:-::$$$:::::OOOOOOOOOOOOOOOOOOOOOO",
"OOOOOOOOOO... OOOOOOO::::::$$$:-.:$$$::::::OOOOOOOOOOOOOOOOOOOOO",
"OOOOOOOOO....  OOOOO::::::O;;;:-::;;;O::::::OOOOOOOOOOOOOOOOOOOO",
"OOOOOOOOO...OO  O=O::::::OO;; :-.: ;;OO::::::O=OOOOOOOOOOOOOOOOO",
"OOOOOOOOO...OOO  O=:.::OOOO$$$:-::$$$OOOO::.:=OOOOOOOOOOOOOOOOOO",
"OOOOOOOOO...OOO  =O::OOOOOO;;;:-.:;;;OOOOOO::O=OOOOOOOOOOOOOOOOO",
"OOOOOOOOOO.OOOOO  OOOOOOOOO;; :-:: ;;OOOOOOOOOOOOOOOOOOOOOOOOOOO",
"OOOOOOOOOOOOOOOOO OOOOOOOOO$$$:-.:$$$OOOOOOOOOOOOOOOOOOOOOOOOOOO",
"OOOOOOOOOOOOOOOOO  OOOOOOOO;;;:-::;;;OOOOOOOOOOOOOOOOOOOOOOOOOOO",
"OOOOOOOOOOOOOOOOOO OOOOOOOO;; :-.: ;;OOOOOOOOOOOOOOOOOOOOOOOOOOO",
"OOOOOOOOOOOOOOOOOOOOOOOOOOO$$$:-::$$$OOOOOOOOOOOOOOOOOOOOOOOOOOO",
"OOOOOOOOOOOOOOOOOOOOOOOOOOO;;;:-.:;;;OOOOOOOOOOOOOOOOOOOOOOOOOOO",
"OOOOOOOOOOOOOOOOOOOOOOOOOOOO:::-::::OOOOOOOOOOOOOOOOOOOOOOOOOOOO",
"OOOOOOOOOOOOOOOOOOOOOOOOOOOO:::-::::OOOOOOOOOOOOOOOOOOOOOOOOOOOO",
"OOOOOOOOOOOOOOOOOOOOOOOOOOOO%%%%%%%%OOOOOOOOOOOOOOOOOOOOOOOOOOOO",
"OOOOOOOOOOOOOOOOOOOOOOOOOOO%&&%%%%&&%OOOOOOOOOOOOOOOOOOOOOOOOOOO",
"OOOOOOOOOOOOOOOOOOOOOOOOOOO%&%%%%%%&%OOOOOOOOOOOOOOOOOOOOOOOOOOO",
"OOOOOOOOOOOOOOOOOOOOOOOOOO%%%%%OO%%%%%OOOOOOOOOOOOOOOOOOOOOOOOOO",
"OOOOOOOOOOOOOOOOOOOOOOOOOO%%%%OOOO%%%%OOOOOOOOOOOOOOOOOOOOOOOOOO",
"OOOOOOOOOOOOOOOOOOOOOOOOO%%%%%OOOO%%%%%OOOOOOOOOOOOOOOOOOOOOOOOO",
"OOOOOOOOOOOOOOOOOOOOOOOOO%%%%OOOOOO%%%%OOOOOOOOOOOOOOOOOOOOOOOOO",
"OOOOOOOOOOOOOOOOOOOOOOOO%%%%%OOOOOO%%%%%OOOOOOOOOOOOOOOOOOOOOOOO",
"OOOOOOOOOOOOOOOOOOOOOOO%%&%%OOOOOOOO%%&%%OOOOOOOOOOOOOOOOOOOOOOO",
"OOOOOOOOOOOOOOOOOOOOOOO%&&%OOOOOOOOOO%&&%OOOOOOOOOOOOOOOOOOOOOOO",
"OOOOOOOOOOOOOOOOOOOOOO%%&&%OOOOOOOOOO%&&%%OOOOOOOOOOOOOOOOOOOOOO",
"OOOOOOOOOOOOOOOOOOOOO%%%%%OOOOOOOOOOOO%%%%%OOOOOOOOOOOOOOOOOOOOO",
"OOOOOOOOOOOOOOOOOOOOO%%%%%OOOOOOOOOOOO%%%%%OOOOOOOOOOOOOOOOOOOOO",
"OOOOOOOOOOOOOOOOOOOO%%%%%OOOOOOOOOOOOOO%%%%%OOOOOOOOOOOOOOOOOOOO",
"OOOOOOOOOOOOOOOOOOO*@@@@OOOOOOOOOOOOOOOO@@@@*OOOOOOOOOOOOOOOOOOO",
"OOOOOOOOOOOOOOOOOOO@@@@@OOOOOOOOOOOOOOOO@@@@@OOOOOOOOOOOOOOOOOOO",
"OOOOOOOOOOOOOOOOOOO     OOOOOOOOOOOOOOOO     OOOOOOOOOOOOOOOOOOO",
"OOOOOOOOOOOOOOOOOOOOOOOOOOOOOOOOOOOOOOOOOOOOOOOOOOOOOOOOOOOOOOOO",
"OOOOOOOOOOOOOOOOOOOOOOOOOOOOOOOOOOOOOOOOOOOOOOOOOOOOOOOOOOOOOOOO",
"OOOOOOOOOOOOOOOOOOOOOOOOOOOOOOOOOOOOOOOOOOOOOOOOOOOOOOOOOOOOOOOO",
"OOOOOOOOOOOOOOOOOOOOOOOOOOOOOOOOOOOOOOOOOOOOOOOOOOOOOOOOOOOOOOOO",
"OOOOOOOOOOOOOOOOOOOOOOOOOOOOOOOOOOOOOOOOOOOOOOOOOOOOOOOOOOOOOOOO",
"OOOOOOOOOOOOOOOOOOOOOOOOOOOOOOOOOOOOOOOOOOOOOOOOOOOOOOOOOOOOOOOO",
"OOOOOOOOOOOOOOOOOOOOOOOOOOOOOOOOOOOOOOOOOOOOOOOOOOOOOOOOOOOOOOOO",
"OOOOOOOOOOOOOOOOOOOOOOOOOOOOOOOOOOOOOOOOOOOOOOOOOOOOOOOOOOOOOOOO",
"OOOOOOOOOOOOOOOOOOOOOOOOOOOOOOOOOOOOOOOOOOOOOOOOOOOOOOOOOOOOOOOO",
"OOOOOOOOOOOOOOOOOOOOOOOOOOOOOOOOOOOOOOOOOOOOOOOOOOOOOOOOOOOOOOOO"
};
