/* XPM */
static char *result[] = {
/* columns rows colors chars-per-pixel */
"64 64 5 1 ",
"  c #3D2203",
". c #573611",
"X c gray28",
"o c #545453",
"O c #22B14C",
/* pixels */
"OOOOOOOOOOOOOOOOOOOOOOOOOOOOOOOOOOOOOOOOOOOOOOOOOOOOOOOOOOOOOOOO",
"OOOOOOOOOOOOOOOOOOOOOOOOOOOOOOOOOOOOOOOOOOOOOOOOOOOOOOOOOOOOOOOO",
"OOOOOOOOOOOOOOOOOOOOOOOOOOOO           OOOOOOOOOOOOOOOOOOOOOOOOO",
"OOOOOOOOOOOOOOOOOOOOOOO                     OOOOOOOOOOOOOOOOOOOO",
"OOOOOOOOOOOOOOOOOOOOO       ...........       OOOOOOOOOOOOOOOOOO",
"OOOOOOOOOOOOOOOOOOO    ....................     OOOOOOOOOOOOOOOO",
"OOOOOOOOOOOOOOOOO    ........         ........    OOOOOOOOOOOOOO",
"OOOOOOOOOOOOOOOO   ....                     ....   OOOOOOOOOOOOO",
"OOOOOOOOOOOOOOO  ....        .........        ....  OOOOOOOOOOOO",
"OOOOOOOOOOOOOO  ...    .....................    ...  OOOOOOOOOOO",
"OOOOOOOOOOOOOO  ..  .........         .........  ... OOOOOOOOOOO",
"OOOOOOOOOOOOO  ..  ....                     ....  ..  OOOOOOOOOO",
"OOOOOOOOOOOOO  ..  ..        ...........      ..  ..  OOOOOOOOOO",
"OOOOOOOOOOOOO  ..  .   ....................    .  ..  OOOOOOOOOO",
"OOOOOOOOOOOOO  ..  ..       ...........       ..  ..  OOOOOOOOOO",
"OOOOOOOOOOOOO  ..  ....                     ....  ..  OOOOOOOOOO",
"OOOOOOOOOOOOO.  ..  ........           ........  ..  .OOOOOOOOOO",
"OOOOOOOOOOOOO.  ...    .....................    ..   .OOOOOOOOOO",
"OOOOOOOOOOOOO.   ....       ...........       ....   .OOOOOOOOOO",
"OOOOOOOOOOOOO.     ....                     ....     .OOOOOOOOOO",
"OOOOOOOOOOOOO.       .......           .......       .OOOOOOOOOO",
"OOOOOOOOOOOOO.   ..    .....................    ..   .OOOOOOOOOO",
"OOOOOOOOOOOOO.   ...        ...........        ...   .OOOOOOOOOO",
"OOOOOOOOOOOOO.   ...                           ...   .OOOOOOOOOO",
"OOOOOOOOOOOOO.   ...   ...               ...   ...   .OOOOOOOOOO",
"OOOOOOOOOOOOO.   ...   ...   ...   ...   ...   ...   .OOOOOOOOOO",
"OOOOOOOOOOOOO.   ...   ...   ...   ...   ...   ...   .OOOOOOOOOO",
"OOOOOOOOOOOOOX   ...   ...   ...   ...   ...   ...   .OOOOOOOOOO",
"OOOOOOOOOOOOOoXX ...   ...   ...   ...   ...   ...  XXOOOOOOOOOO",
"OOOOOOOOOOOOOoooXXX.   ...   ...   ...   ...   ..XXXooOOOOOOOOOO",
"OOOOOOOOOOOOO.ooooXXX  ...   ...   ...   ...  XXXoooooOOOOOOOOOO",
"OOOOOOOOOOOOO.  ooooXXXX..   ...   ...   ..XXXoooo   .OOOOOOOOOO",
"OOOOOOOOOOOOO.   .ooooooXXXX ...   ...   XXXooooo.   .OOOOOOOOOO",
"OOOOOOOOOOOOO.   ...ooooooooXXXXXXXXXXXXXooooo ...   .OOOOOOOOOO",
"OOOOOOOOOOOOO.   ...   .oooooooooooooooooo..   ...   .OOOOOOOOOO",
"OOOOOOOOOOOOO.   ...   ...   oooooooooo  ...   ...   .OOOOOOOOOO",
"OOOOOOOOOOOOO.   ...   ...   ...   ...   ...   ...   .OOOOOOOOOO",
"OOOOOOOOOOOOO.   ...   ...   ...   ...   ...   ...   .OOOOOOOOOO",
"OOOOOOOOOOOOO.   ...   ...   ...   ...   ...   ...   .OOOOOOOOOO",
"OOOOOOOOOOOOO.   ...   ...   ...   ...   ...   ...   .OOOOOOOOOO",
"OOOOOOOOOOOOO.   ...   ...   ...   ...   ...   ...   .OOOOOOOOOO",
"OOOOOOOOOOOOO.   ...   ...   ...   ...   ...   ...   .OOOOOOOOOO",
"OOOOOOOOOOOOO.   ...   ...   ...   ...   ...   ...   .OOOOOOOOOO",
"OOOOOOOOOOOOOX   ...   ...   ...   ...   ...   ...   .OOOOOOOOOO",
"OOOOOOOOOOOOOoXXX...   ...   ...   ...   ...   ...XXXXOOOOOOOOOO",
"OOOOOOOOOOOOOooooXXXX  ...   ...   ...   ...   .XoooooOOOOOOOOOO",
"OOOOOOOOOOOOO.oooooooXXXX.   ...   ...   ..XXXXXooooooOOOOOOOOOO",
"OOOOOOOOOOOOO.   ooooooooXXXX...   ...  XXXoooooooo  .OOOOOOOOOO",
"OOOOOOOOOOOOO.   ...oooooooooXXXXXXXXXXXooooooooo.   .OOOOOOOOOO",
"OOOOOOOOOOOOO.   ...   .ooooooooooooooooooooo  ...   .OOOOOOOOOO",
"OOOOOOOOOOOOO.   ...   ...  ooooooooooooooo.   ...   .OOOOOOOOOO",
"OOOOOOOOOOOOO.   ...   ...   ...   ...   ...   ...   .OOOOOOOOOO",
"OOOOOOOOOOOOO.   ...   ...   ...   ...   ...   ...   .OOOOOOOOOO",
"OOOOOOOOOOOOO.   ...   ...   ...   ...   ...   ...   .OOOOOOOOOO",
"OOOOOOOOOOOOOO.  ...   ...   ...   ...   ...   ...   .OOOOOOOOOO",
"OOOOOOOOOOOOOO.  ...   ...   ...   ...   ...   ...  .OOOOOOOOOOO",
"OOOOOOOOOOOOOOO. ...   ...   ...   ...   ...   ... .OOOOOOOOOOOO",
"OOOOOOOOOOOOOOOO....   ...   ...   ...   ...   ....OOOOOOOOOOOOO",
"OOOOOOOOOOOOOOOOO...   ...   ...   ...   ...   ...OOOOOOOOOOOOOO",
"OOOOOOOOOOOOOOOOOOO..  ...   ...   ...   ...  ..OOOOOOOOOOOOOOOO",
"OOOOOOOOOOOOOOOOOOOOO.....   ...   ...   .....OOOOOOOOOOOOOOOOOO",
"OOOOOOOOOOOOOOOOOOOOOOO..... ...   .........OOOOOOOOOOOOOOOOOOOO",
"OOOOOOOOOOOOOOOOOOOOOOOOOOOO...........OOOOOOOOOOOOOOOOOOOOOOOOO",
"OOOOOOOOOOOOOOOOOOOOOOOOOOOOOOOOOOOOOOOOOOOOOOOOOOOOOOOOOOOOOOOO"
};
